<?xml version="1.0" encoding="UTF-8" standalone="no"?>
<!-- Created with Inkscape (http://www.inkscape.org/) -->

<svg
   xmlns:osb="http://www.openswatchbook.org/uri/2009/osb"
   xmlns:dc="http://purl.org/dc/elements/1.1/"
   xmlns:cc="http://creativecommons.org/ns#"
   xmlns:rdf="http://www.w3.org/1999/02/22-rdf-syntax-ns#"
   xmlns:svg="http://www.w3.org/2000/svg"
   xmlns="http://www.w3.org/2000/svg"
   xmlns:xlink="http://www.w3.org/1999/xlink"
   xmlns:sodipodi="http://sodipodi.sourceforge.net/DTD/sodipodi-0.dtd"
   xmlns:inkscape="http://www.inkscape.org/namespaces/inkscape"
   width="744.09448819"
   height="1052.3622047"
   id="svg2"
   version="1.1"
   inkscape:version="0.48.3.1 r9886"
   sodipodi:docname="kitty.jpg.svg">
  <defs
     id="defs4">
    <linearGradient
       inkscape:collect="always"
       id="linearGradient5292">
      <stop
         style="stop-color:#000000;stop-opacity:1;"
         offset="0"
         id="stop5294" />
      <stop
         style="stop-color:#000000;stop-opacity:0;"
         offset="1"
         id="stop5296" />
    </linearGradient>
    <linearGradient
       inkscape:collect="always"
       id="linearGradient5274">
      <stop
         style="stop-color:#000000;stop-opacity:1;"
         offset="0"
         id="stop5276" />
      <stop
         style="stop-color:#000000;stop-opacity:0;"
         offset="1"
         id="stop5278" />
    </linearGradient>
    <linearGradient
       inkscape:collect="always"
       id="linearGradient5266">
      <stop
         style="stop-color:#000000;stop-opacity:1;"
         offset="0"
         id="stop5268" />
      <stop
         style="stop-color:#000000;stop-opacity:0;"
         offset="1"
         id="stop5270" />
    </linearGradient>
    <linearGradient
       inkscape:collect="always"
       id="linearGradient5258">
      <stop
         style="stop-color:#000000;stop-opacity:1;"
         offset="0"
         id="stop5260" />
      <stop
         style="stop-color:#000000;stop-opacity:0;"
         offset="1"
         id="stop5262" />
    </linearGradient>
    <linearGradient
       id="linearGradient5241"
       osb:paint="solid">
      <stop
         style="stop-color:#c8c8a9;stop-opacity:1;"
         offset="0"
         id="stop5243" />
    </linearGradient>
    <linearGradient
       id="linearGradient5312"
       osb:paint="solid">
      <stop
         style="stop-color:#000000;stop-opacity:1;"
         offset="0"
         id="stop5314" />
    </linearGradient>
    <linearGradient
       id="linearGradient3830"
       osb:paint="solid">
      <stop
         style="stop-color:#000000;stop-opacity:1;"
         offset="0"
         id="stop3832" />
    </linearGradient>
    <linearGradient
       inkscape:collect="always"
       xlink:href="#linearGradient5258"
       id="linearGradient5264"
       x1="-61.513262"
       y1="394.7886"
       x2="605.90625"
       y2="394.7886"
       gradientUnits="userSpaceOnUse" />
    <linearGradient
       inkscape:collect="always"
       xlink:href="#linearGradient5266"
       id="linearGradient5272"
       x1="106.61552"
       y1="832.54824"
       x2="476.78408"
       y2="832.54824"
       gradientUnits="userSpaceOnUse" />
    <linearGradient
       inkscape:collect="always"
       xlink:href="#linearGradient5274"
       id="linearGradient5280"
       x1="24.24377"
       y1="808.34375"
       x2="564.78748"
       y2="808.34375"
       gradientUnits="userSpaceOnUse" />
    <linearGradient
       inkscape:collect="always"
       xlink:href="#linearGradient5292"
       id="linearGradient5298"
       x1="-774.46007"
       y1="666.17196"
       x2="-576.72314"
       y2="666.17196"
       gradientUnits="userSpaceOnUse" />
  </defs>
  <sodipodi:namedview
     id="base"
     pagecolor="#ffffff"
     bordercolor="#666666"
     borderopacity="1.0"
     inkscape:pageopacity="0.0"
     inkscape:pageshadow="2"
     inkscape:zoom="0.35"
     inkscape:cx="-12.506194"
     inkscape:cy="290.95281"
     inkscape:document-units="px"
     inkscape:current-layer="layer1"
     showgrid="false"
     inkscape:window-width="1366"
     inkscape:window-height="674"
     inkscape:window-x="0"
     inkscape:window-y="31"
     inkscape:window-maximized="1" />
  <metadata
     id="metadata7">
    <rdf:RDF>
      <cc:Work
         rdf:about="">
        <dc:format>image/svg+xml</dc:format>
        <dc:type
           rdf:resource="http://purl.org/dc/dcmitype/StillImage" />
        <dc:title></dc:title>
      </cc:Work>
    </rdf:RDF>
  </metadata>
  <g
     inkscape:label="Layer 1"
     inkscape:groupmode="layer"
     id="layer1">
    <path
       style="opacity:0.98000003999999996;fill:#c8c8a9;fill-opacity:1;stroke:url(#linearGradient5280);stroke-width:1.07495903999999998;stroke-miterlimit:4;stroke-opacity:1;stroke-dasharray:none"
       d="m 294.5,523.4375 c -148.96603,0 -269.71875,127.56376 -269.71875,284.90625 0,70.36514 5.979422,130.72301 46.004754,180.42814 -32.028966,4.57354 -37.848504,27.39291 -37.848504,49.88431 0,25.915 31.859945,46.9376 71.15625,46.9376 27.77401,0 51.81122,-10.5084 63.53125,-25.8126 37.82078,21.3362 81.00217,33.4688 126.875,33.4688 43.44519,0 84.49261,-10.8831 120.84375,-30.1562 12.49744,13.4907 35.02318,22.5 60.75,22.5 39.2963,-1e-4 71.15625,-21.0226 71.15625,-46.9376 l 0,-0.031 c -0.0162,-20.6398 -2.25687,-38.1359 -30.34375,-44.40625 40.7097,-49.89466 47.34375,-114.84099 47.34375,-185.875 l 0,-0.15625 C 564.1728,650.9029 443.41144,523.4377 294.5,523.4377 z"
       id="path5249"
       inkscape:connector-curvature="0"
       sodipodi:nodetypes="cscsscscssccscsc" />
    <path
       style="fill:#c8c8a9;fill-opacity:1;stroke:url(#linearGradient5272);stroke-width:0.92130727000000001px;stroke-linecap:butt;stroke-linejoin:miter;stroke-opacity:1"
       d="m 107.07617,574.97006 c 0,0 0.65687,458.27244 56.56854,497.13394 55.91167,38.8614 105.05587,-1.7148 105.05587,-1.7148 l 24.26396,-238.3641 28.26396,240.0789 c 0,0 50.2639,43.6306 109.09649,1.7148 58.83259,-41.9158 44.4467,-500.73594 44.4467,-500.73594"
       id="path3027"
       inkscape:connector-curvature="0"
       sodipodi:nodetypes="czccczc" />
    <g
       id="g5340"
       style="stroke:none;stroke-opacity:1;stroke-width:1;stroke-miterlimit:1;stroke-dasharray:none">
      <path
         sodipodi:nodetypes="scscccccssczcs"
         inkscape:connector-curvature="0"
         id="path2987"
         d="m 600.125,119.71875 c -60.8262,0.72074 -151.68022,22.73157 -191.75,74.9375 -38.02508,-15.978 -80.71384,-24.9375 -125.8125,-24.9375 -57.08515,0 -110.29712,14.38742 -155.09375,39.15625 -60.991396,-50.61559 -142.442263,-22.46581 -182.064877,-64.00475 -10.54243,62.10315 -10.820633,111.50595 11.84375,153.35008 20.56686,37.14177 41.158627,54.81092 41.158627,54.81092 -0.5779257,2.18326 -4.1348963,30.80897 -4.5,66.75 0,138.11891 129.23493,250.09375 288.65625,250.09375 159.42132,0 288.65625,-111.97484 288.65625,-250.09375 0,-37.39746 -9.48566,-72.85922 -26.46875,-104.71875 40.45597,-32.51538 44.71865,-65.73284 50.03283,-106.53125 5.31418,-40.79841 11.12342,-88.8125 11.12342,-88.8125 -1.89695,-0.0208 -3.81911,-0.0233 -5.78125,0 z"
         style="fill:#c8c8a9;fill-opacity:1;stroke:url(#linearGradient5264);stroke-width:1;stroke-miterlimit:1;stroke-opacity:1;stroke-dasharray:none" />
      <path
         sodipodi:nodetypes="czczczc"
         inkscape:connector-curvature="0"
         id="path5320"
         d="m 608.11182,117.97108 c 0,0 -50.56818,44.20769 -75.76143,62.62945 -25.19325,18.42176 -72.73098,48.48732 -72.73098,48.48732 0,0 36.28424,15.66855 57.57869,35.86042 21.29445,20.19187 30.30458,47.98225 30.30458,47.98225 0,0 41.0059,-28.169 45.45686,-81.82236 4.45096,-53.65335 15.15228,-113.13708 15.15228,-113.13708 z"
         style="fill:#c8b7a9;fill-opacity:1;stroke:none;stroke-width:1;stroke-linecap:butt;stroke-linejoin:miter;stroke-opacity:1;stroke-miterlimit:1;stroke-dasharray:none" />
      <path
         sodipodi:nodetypes="csszczc"
         inkscape:connector-curvature="0"
         id="path5322"
         d="m -2.7703051,473.54477 c 38.3857971,15.15229 75.5012881,-8.08122 85.6028141,16.16244 10.101525,24.24367 -11.54061,49.92641 -6.489848,55.98733 5.050763,6.06091 31.359349,22.99784 30.733509,36.94671 -0.62584,13.94887 -18.182746,28.28427 -18.182746,28.28427 0,0 -30.344933,-23.79104 -56.568543,-58.58885 -26.22361,-34.79781 -35.0951861,-78.7919 -35.0951861,-78.7919 z"
         style="fill:#f3f5c4;fill-opacity:1;stroke:none;stroke-width:1;stroke-linecap:butt;stroke-linejoin:miter;stroke-opacity:1;stroke-miterlimit:1;stroke-dasharray:none" />
      <path
         style="fill:#ffeea4;fill-opacity:1;stroke:none;stroke-opacity:1;stroke-width:1;stroke-miterlimit:1;stroke-dasharray:none"
         d="m 408.09824,190.47421 c -35.86251,20.41917 -36.01472,66.75977 -61.238,59.43978 -25.22329,-7.31997 -31.67607,-40.27975 -39.56441,-40.14169 -7.88834,0.13804 -37.57348,10.02704 -48.05174,0.79834 -10.47826,-9.2287 -9.93369,-43.32266 -9.93369,-43.32266 0,0 36.84166,-3.73944 79.67838,0.48733 42.83672,4.22677 79.10946,22.7389 79.10946,22.7389 z"
         id="path5324"
         inkscape:connector-curvature="0"
         sodipodi:nodetypes="csszczc" />
      <path
         style="fill:#c8b7a9;fill-opacity:1;stroke:none;stroke-width:1;stroke-linecap:butt;stroke-linejoin:miter;stroke-opacity:1;stroke-miterlimit:1;stroke-dasharray:none"
         d="m -56.38059,139.97108 c 0,0 31.996751,39.92198 72.190001,56.91516 40.19325,16.99319 59.159552,37.77304 59.159552,37.77304 0,0 -21.28424,24.95427 -44.721547,49.43185 -23.4373073,24.47758 -35.3045803,60.1251 -35.3045803,60.1251 0,0 -43.8630427,-40.31186 -51.8854317,-91.82236 -8.022388,-51.51049 0.562006,-112.42279 0.562006,-112.42279 z"
         id="path5326"
         inkscape:connector-curvature="0"
         sodipodi:nodetypes="czczczc" />
      <path
         sodipodi:nodetypes="cczc"
         inkscape:connector-curvature="0"
         id="path5336"
         d="m 317.01702,671.70356 c 46.7046,-99.83708 145.00662,-133.61907 176.25385,-75.63625 0,0 -46.0791,41.58044 -95.60379,59.17626 -49.52469,17.59582 -80.65006,16.45999 -80.65006,16.45999 z"
         style="fill:#ffeea4;fill-opacity:1;stroke:none;stroke-opacity:1;stroke-width:1;stroke-miterlimit:1;stroke-dasharray:none" />
    </g>
    <path
       sodipodi:type="arc"
       style="fill:none;stroke:#000000;stroke-width:5;stroke-miterlimit:4;stroke-opacity:1;stroke-dasharray:none"
       id="path3759"
       sodipodi:cx="233.57143"
       sodipodi:cy="480.21933"
       sodipodi:rx="96.428574"
       sodipodi:ry="96.428574"
       d="m 330,480.21933 a 96.428574,96.428574 0 1 1 -192.85715,0 96.428574,96.428574 0 1 1 192.85715,0 z"
       transform="translate(-96,-120)" />
    <path
       sodipodi:type="arc"
       style="fill:#ffd5d5;stroke:#f9cdad;stroke-width:0;stroke-miterlimit:4;stroke-opacity:1;stroke-dasharray:none"
       id="path3769"
       sodipodi:cx="277.85715"
       sodipodi:cy="464.50504"
       sodipodi:rx="23.571428"
       sodipodi:ry="15"
       d="m 301.42858,464.50504 a 23.571428,15 0 1 1 -47.14286,0 23.571428,15 0 1 1 47.14286,0 z"
       transform="matrix(0.80424968,0,0,0.75973586,51.339863,107.56329)" />
    <g
       id="g3787"
       transform="matrix(0.59894754,0,0,0.49077237,362.06567,279.04559)"
       style="fill:none;stroke:#ffd5d5;stroke-opacity:1">
      <path
         inkscape:connector-curvature="0"
         id="path3783"
         d="m -167.68532,472.53462 c 0,0 4.10404,8.01294 17.93764,21.6641 13.8336,13.65115 26.50907,17.73185 26.50907,17.73185"
         style="fill:none;stroke:#ffd5d5;stroke-width:4;stroke-linecap:butt;stroke-linejoin:miter;stroke-miterlimit:4;stroke-opacity:1;stroke-dasharray:none"
         sodipodi:nodetypes="czc" />
      <path
         inkscape:connector-curvature="0"
         id="path3785"
         d="m -164.65486,512.94072 34.34518,-42.4264"
         style="fill:none;stroke:#ffd5d5;stroke-width:4;stroke-linecap:butt;stroke-linejoin:miter;stroke-miterlimit:4;stroke-opacity:1;stroke-dasharray:none" />
    </g>
    <g
       id="g3838">
      <path
         sodipodi:type="arc"
         style="fill:#000000;stroke:#000000;stroke-width:5;stroke-miterlimit:4;stroke-opacity:1;stroke-dasharray:none;fill-opacity:1"
         id="path3761"
         sodipodi:cx="233.57143"
         sodipodi:cy="480.21933"
         sodipodi:rx="96.428574"
         sodipodi:ry="96.428574"
         d="m 330,480.21933 c 0,53.25603 -43.17254,96.42857 -96.42857,96.42857 -53.25603,0 -96.42858,-43.17254 -96.42858,-96.42857 0,-53.25603 43.17255,-96.42857 96.42858,-96.42857 53.25603,0 96.42857,43.17254 96.42857,96.42857 z"
         transform="translate(184,-120)" />
      <path
         transform="matrix(1.3404648,0,0,1.2583142,236.32914,-104.55906)"
         sodipodi:type="arc"
         style="fill:#ffffff;fill-opacity:1;stroke:#000000;stroke-width:4;stroke-miterlimit:4;stroke-opacity:1;stroke-dasharray:none"
         id="path3773"
         sodipodi:cx="150"
         sodipodi:cy="342.00504"
         sodipodi:rx="42.857143"
         sodipodi:ry="43.92857"
         d="m 192.85714,342.00504 c 0,24.26107 -19.18779,43.92857 -42.85714,43.92857 -23.66935,0 -42.85714,-19.6675 -42.85714,-43.92857 0,-24.26108 19.18779,-43.92857 42.85714,-43.92857 23.66935,0 42.85714,19.66749 42.85714,43.92857 z" />
      <path
         sodipodi:nodetypes="cczcczc"
         inkscape:connector-curvature="0"
         id="path3805"
         d="m 326.25442,383.85095 20.70442,-11.4997 c 0,0 3.11374,13.55997 7.77995,20.46021 4.66621,6.90024 9.66977,14.17681 9.66977,14.17681 l -16.74229,16.93425 c 0,0 -5.31791,-5.97063 -12.72487,-17.8419 -7.40695,-11.87129 -8.68698,-22.22967 -8.68698,-22.22967 z"
         style="fill:#ffffff;fill-opacity:1;stroke:#000000;stroke-width:0.82441341999999995px;stroke-linecap:butt;stroke-linejoin:miter;stroke-opacity:1" />
      <path
         inkscape:transform-center-y="-23.945662"
         inkscape:transform-center-x="-15.714286"
         style="fill:#ffffff;fill-opacity:1;stroke:#000000;stroke-width:0.82441342px;stroke-linecap:butt;stroke-linejoin:miter;stroke-opacity:1"
         d="m 355.05945,429.67338 14.81775,-17.29722 c 22.67857,13.84462 48.72556,20.29053 72.54916,17.3881 28.33886,-4.13453 56.42605,-22.46405 56.42605,-22.46405 0,0 -18.98679,29.58548 -48.73546,39.66138 -29.74867,10.07589 -58.83064,6.35648 -76.16388,-3.11047 -17.33324,-9.46695 -18.89362,-14.17774 -18.89362,-14.17774 z"
         id="path3826"
         inkscape:connector-curvature="0"
         sodipodi:nodetypes="cccczzc" />
      <path
         transform="matrix(0.96670998,-0.25587462,0.25587462,0.96670998,-94.567821,93.77317)"
         d="m 380.71429,385.57648 c 0,3.35315 -7.83501,6.07143 -17.5,6.07143 -9.66498,0 -17.5,-2.71828 -17.5,-6.07143 0,-3.35316 7.83502,-6.07143 17.5,-6.07143 9.66499,0 17.5,2.71827 17.5,6.07143 z"
         sodipodi:ry="6.0714288"
         sodipodi:rx="17.5"
         sodipodi:cy="385.57648"
         sodipodi:cx="363.21429"
         id="path3828"
         style="fill:#ffffff;fill-opacity:1;stroke:none"
         sodipodi:type="arc" />
      <path
         sodipodi:type="arc"
         style="fill:#ffffff;fill-opacity:1;stroke:none"
         id="path3836"
         sodipodi:cx="363.21429"
         sodipodi:cy="385.57648"
         sodipodi:rx="17.5"
         sodipodi:ry="6.0714288"
         d="m 380.71429,385.57648 c 0,3.35315 -7.83501,6.07143 -17.5,6.07143 -9.66498,0 -17.5,-2.71828 -17.5,-6.07143 0,-3.35316 7.83502,-6.07143 17.5,-6.07143 9.66499,0 17.5,2.71827 17.5,6.07143 z"
         transform="matrix(0.96670998,-0.25587462,0.25587462,0.96670998,-56.710678,136.63031)" />
    </g>
    <g
       id="g3846"
       transform="translate(-280,0)">
      <path
         transform="translate(184,-120)"
         d="m 330,480.21933 c 0,53.25603 -43.17254,96.42857 -96.42857,96.42857 -53.25603,0 -96.42858,-43.17254 -96.42858,-96.42857 0,-53.25603 43.17255,-96.42857 96.42858,-96.42857 53.25603,0 96.42857,43.17254 96.42857,96.42857 z"
         sodipodi:ry="96.428574"
         sodipodi:rx="96.428574"
         sodipodi:cy="480.21933"
         sodipodi:cx="233.57143"
         id="path3848"
         style="fill:#000000;fill-opacity:1;stroke:#000000;stroke-width:5;stroke-miterlimit:4;stroke-opacity:1;stroke-dasharray:none"
         sodipodi:type="arc" />
      <path
         d="m 192.85714,342.00504 c 0,24.26107 -19.18779,43.92857 -42.85714,43.92857 -23.66935,0 -42.85714,-19.6675 -42.85714,-43.92857 0,-24.26108 19.18779,-43.92857 42.85714,-43.92857 23.66935,0 42.85714,19.66749 42.85714,43.92857 z"
         sodipodi:ry="43.92857"
         sodipodi:rx="42.857143"
         sodipodi:cy="342.00504"
         sodipodi:cx="150"
         id="path3850"
         style="fill:#ffffff;fill-opacity:1;stroke:#000000;stroke-width:4;stroke-miterlimit:4;stroke-opacity:1;stroke-dasharray:none"
         sodipodi:type="arc"
         transform="matrix(1.3404648,0,0,1.2583142,236.32914,-104.55906)" />
      <path
         style="fill:#ffffff;fill-opacity:1;stroke:#000000;stroke-width:0.82441342px;stroke-linecap:butt;stroke-linejoin:miter;stroke-opacity:1"
         d="m 326.25442,383.85095 20.70442,-11.4997 c 0,0 3.11374,13.55997 7.77995,20.46021 4.66621,6.90024 9.66977,14.17681 9.66977,14.17681 l -16.74229,16.93425 c 0,0 -5.31791,-5.97063 -12.72487,-17.8419 -7.40695,-11.87129 -8.68698,-22.22967 -8.68698,-22.22967 z"
         id="path3852"
         inkscape:connector-curvature="0"
         sodipodi:nodetypes="cczcczc" />
      <path
         sodipodi:nodetypes="cccczzc"
         inkscape:connector-curvature="0"
         id="path3854"
         d="m 355.05945,429.67338 14.81775,-17.29722 c 22.67857,13.84462 48.72556,20.29053 72.54916,17.3881 28.33886,-4.13453 56.42605,-22.46405 56.42605,-22.46405 0,0 -18.98679,29.58548 -48.73546,39.66138 -29.74867,10.07589 -58.83064,6.35648 -76.16388,-3.11047 -17.33324,-9.46695 -18.89362,-14.17774 -18.89362,-14.17774 z"
         style="fill:#ffffff;fill-opacity:1;stroke:#000000;stroke-width:0.82441342px;stroke-linecap:butt;stroke-linejoin:miter;stroke-opacity:1"
         inkscape:transform-center-x="-15.714286"
         inkscape:transform-center-y="-23.945662" />
      <path
         sodipodi:type="arc"
         style="fill:#ffffff;fill-opacity:1;stroke:none"
         id="path3856"
         sodipodi:cx="363.21429"
         sodipodi:cy="385.57648"
         sodipodi:rx="17.5"
         sodipodi:ry="6.0714288"
         d="m 380.71429,385.57648 c 0,3.35315 -7.83501,6.07143 -17.5,6.07143 -9.66498,0 -17.5,-2.71828 -17.5,-6.07143 0,-3.35316 7.83502,-6.07143 17.5,-6.07143 9.66499,0 17.5,2.71827 17.5,6.07143 z"
         transform="matrix(0.96670998,-0.25587462,0.25587462,0.96670998,-94.567821,93.77317)" />
      <path
         transform="matrix(0.96670998,-0.25587462,0.25587462,0.96670998,-56.710678,136.63031)"
         d="m 380.71429,385.57648 c 0,3.35315 -7.83501,6.07143 -17.5,6.07143 -9.66498,0 -17.5,-2.71828 -17.5,-6.07143 0,-3.35316 7.83502,-6.07143 17.5,-6.07143 9.66499,0 17.5,2.71827 17.5,6.07143 z"
         sodipodi:ry="6.0714288"
         sodipodi:rx="17.5"
         sodipodi:cy="385.57648"
         sodipodi:cx="363.21429"
         id="path3858"
         style="fill:#ffffff;fill-opacity:1;stroke:none"
         sodipodi:type="arc" />
    </g>
    <path
       style="fill:none;stroke:#000000;stroke-width:1px;stroke-linecap:butt;stroke-linejoin:miter;stroke-opacity:1"
       d="M 470.09731,479.92997 637.02988,392.40829"
       id="path5350"
       inkscape:connector-curvature="0" />
    <path
       style="fill:none;stroke:#000000;stroke-width:1px;stroke-linecap:butt;stroke-linejoin:miter;stroke-opacity:1"
       d="M 487.15303,497.77499 638.1569,457.39578"
       id="path5352"
       inkscape:connector-curvature="0" />
    <path
       style="fill:none;stroke:#000000;stroke-width:1px;stroke-linecap:butt;stroke-linejoin:miter;stroke-opacity:1"
       d="m 500.049,512.22706 141.37437,11.65068"
       id="path5354"
       inkscape:connector-curvature="0" />
    <path
       style="fill:none;stroke:#000000;stroke-width:1px;stroke-linecap:butt;stroke-linejoin:miter;stroke-opacity:1"
       d="M 107.07617,484.65645 -42.426407,474.55493"
       id="path5356"
       inkscape:connector-curvature="0" />
    <path
       style="fill:none;stroke:#000000;stroke-width:1px;stroke-linecap:butt;stroke-linejoin:miter;stroke-opacity:1"
       d="m 113.13709,511.04225 -151.522887,0"
       id="path5358"
       inkscape:connector-curvature="0" />
    <path
       style="fill:none;stroke:#000000;stroke-width:1px;stroke-linecap:butt;stroke-linejoin:miter;stroke-opacity:1"
       d="M 105.05586,533.38744 -36.365492,593.99659"
       id="path5360"
       inkscape:connector-curvature="0" />
    <path
       sodipodi:type="spiral"
       style="fill:#c8c8a9;fill-opacity:1;stroke:url(#linearGradient5298);stroke-width:1;stroke-linecap:butt;stroke-linejoin:miter;stroke-miterlimit:4;stroke-opacity:1;stroke-dasharray:none"
       id="path5282"
       sodipodi:cx="-690.94434"
       sodipodi:cy="656.38239"
       sodipodi:expansion="1"
       sodipodi:revolution="2.0294232"
       sodipodi:radius="125.63097"
       sodipodi:argument="-17.815447"
       sodipodi:t0="0"
       d="m -690.94434,656.38239 c 4.76086,8.0023 -8.4381,10.36558 -13.30035,7.91284 -13.17638,-6.64676 -10.87869,-25.10273 -2.52535,-34.51354 14.94217,-16.83374 41.54002,-12.49533 55.72675,2.86215 20.8196,22.53772 14.22135,58.22248 -8.24965,76.93994 -29.9503,24.94743 -74.99491,15.99765 -98.15314,-13.63715 -29.14228,-37.29236 -17.80072,-91.81091 19.02465,-119.36634 44.60044,-33.37332 108.6516,-19.61942 140.57954,24.41215 37.62597,51.88967 21.44796,125.50771 -29.79965,161.79274 -6.29249,4.45529 -13.00228,8.31853 -20.01002,11.5331"
       transform="matrix(1.1760533,0.48079637,-0.48489448,1.1493821,1651.3391,417.36944)" />
    <path
       style="fill:#f3f5c4;fill-opacity:1;stroke:none"
       d="m 115.13708,819.52202 c 35.35534,32.32488 62.74993,15.95455 62.64977,38.89087 -0.10016,22.93633 -24.24366,66.67007 -24.24366,66.67007 0,0 52.89508,24.85685 48.48732,46.46702 -4.40776,21.61017 -70.73099,9.59644 -70.73099,9.59644 0,0 -6.90271,-46.80373 -10.10153,-79.29697 -3.19881,-32.49324 -6.06091,-82.32743 -6.06091,-82.32743 z"
       id="path5323"
       inkscape:connector-curvature="0"
       sodipodi:nodetypes="czczczc" />
  </g>
</svg>
